<svg width="480" height="640" viewBox="0 0 480 640" fill="none" xmlns="http://www.w3.org/2000/svg">
  <defs>
    <linearGradient id="g" x1="0" y1="0" x2="1" y2="1">
      <stop offset="0%" stop-color="#7C3AED"/>
      <stop offset="100%" stop-color="#3B82F6"/>
    </linearGradient>
  </defs>
  <rect x="0" y="0" width="480" height="640" rx="16" fill="#F3F4F6"/>
  <rect x="48" y="72" width="384" height="496" rx="12" fill="url(#g)" opacity="0.08"/>
  <g fill="#9CA3AF">
    <rect x="120" y="160" width="240" height="320" rx="8" fill="#E5E7EB"/>
    <rect x="140" y="180" width="200" height="24" rx="4"/>
    <rect x="140" y="212" width="160" height="20" rx="4" opacity="0.7"/>
    <rect x="140" y="260" width="200" height="16" rx="4" opacity="0.5"/>
    <rect x="140" y="288" width="200" height="16" rx="4" opacity="0.5"/>
    <rect x="140" y="316" width="160" height="16" rx="4" opacity="0.5"/>
  </g>
  <g>
    <circle cx="240" cy="480" r="28" fill="url(#g)"/>
    <path d="M240 467c-7.18 0-13 5.82-13 13s5.82 13 13 13 13-5.82 13-13-5.82-13-13-13zm0 22a9 9 0 110-18 9 9 0 010 18z" fill="#fff"/>
  </g>
</svg>
